<svg xmlns="http://www.w3.org/2000/svg" viewBox="0 0 511.96 320"><defs><style>.cls-1{fill:#fff;}</style></defs><title>Ресурс 1</title><g id="Слой_2" data-name="Слой 2"><g id="Capa_1" data-name="Capa 1"><path class="cls-1" d="M234.91,33.28c9.67,13.28,14.5,29.12,14.5,47.65,0,19-4.83,34.4-14.63,46-5.5,6.43-13.53,12.39-24.16,17.73q24.19,8.73,36.58,27.55t12.32,45.73q0,27.75-14.11,49.76A86.39,86.39,0,0,1,223,292.22q-15.12,11.43-35.75,15.68a222.59,222.59,0,0,1-44.7,4.2H0V0H152.9Q210.79.87,234.91,33.28ZM63.07,54.21v68.86H140q20.55,0,33.47-7.74c8.55-5.15,12.87-14.31,12.87-27.39,0-14.6-5.67-24.16-17-28.87q-14.68-4.84-37.4-4.86Zm0,120.51V258H139.9c13.73,0,24.45-1.82,32.07-5.5,13.89-6.85,20.8-19.78,20.8-39,0-16.29-6.69-27.42-20.13-33.5-7.55-3.36-18.11-5.15-31.68-5.25ZM450.78,86q24.54,10.8,40.39,34.14,14.49,20.6,18.69,47.71c1.66,10.56,2.3,25.89,2,45.83H341.44c1,23.13,9.09,39.39,24.51,48.67,9.35,5.79,20.55,8.7,33.76,8.7q20.84,0,33.92-10.56a50.44,50.44,0,0,0,12.61-15.87H508.7q-2.49,20.49-22.65,41.73Q454.61,320,398,320q-46.75,0-82.4-28.38-35.82-28.38-35.75-92.39,0-60,32.23-92t83.64-32Q426.37,75.16,450.78,86ZM359.3,138.14q-13,13.2-16.32,35.72H448.42c-1.12-16-6.6-28.16-16.29-36.52s-21.89-12.41-36.32-12.41C380.16,125,367.94,129.38,359.3,138.14ZM327.17,53.41H462.75V14.56H327.17V53.41Z"/></g></g></svg>