<svg xmlns="http://www.w3.org/2000/svg" viewBox="0 0 512 512"><defs><style>.cls-1{fill:#fff;}</style></defs><title>browser</title><g id="Слой_2" data-name="Слой 2"><g id="Capa_1" data-name="Capa 1"><path class="cls-1" d="M256,0C114.85,0,0,114.85,0,256S114.85,512,256,512,512,397.15,512,256,397.15,0,256,0Zm0,480C132.48,480,32,379.49,32,256S132.48,32,256,32,480,132.48,480,256,379.49,480,256,480Z"/><path class="cls-1" d="M378.5,108.16A191.22,191.22,0,0,0,256,64a193.57,193.57,0,0,0-39.23,4,912.49,912.49,0,0,1,63.07,103A452.21,452.21,0,0,0,378.5,108.16Z"/><path class="cls-1" d="M317.15,252.83a358,358,0,0,1,130.56-2.27,190.87,190.87,0,0,0-46.4-119.81A487.28,487.28,0,0,1,293.7,199.49Q306.32,225.79,317.15,252.83Z"/><path class="cls-1" d="M184.64,77.86A192.1,192.1,0,0,0,69.09,212.74,453.16,453.16,0,0,0,250,183.17,874.89,874.89,0,0,0,184.64,77.86Z"/><path class="cls-1" d="M264.32,212.13A481.62,481.62,0,0,1,89.5,245.5c-8.28,0-16.6-.51-24.92-1-.23,3.81-.58,7.59-.58,11.46a191.14,191.14,0,0,0,45.25,123.68A360,360,0,0,1,286,260.8Q275.91,236.13,264.32,212.13Z"/><path class="cls-1" d="M328.9,283.14a904.71,904.71,0,0,1,36,130.91A191.76,191.76,0,0,0,446,282.59,326.19,326.19,0,0,0,328.9,283.14Z"/><path class="cls-1" d="M132,402.43a191.09,191.09,0,0,0,203.61,28.13,871.12,871.12,0,0,0-38.11-140A327.75,327.75,0,0,0,132,402.43Z"/></g></g></svg>